<svg width="167" height="64" viewBox="0 0 167 64" fill="none" xmlns="http://www.w3.org/2000/svg">
<path d="M96.596 40.788C97.22 40.788 97.736 40.992 98.144 41.4C98.576 41.784 98.792 42.288 98.792 42.912C98.792 43.512 98.576 44.016 98.144 44.424C97.736 44.808 97.22 45 96.596 45H84.896C84.272 45 83.744 44.796 83.312 44.388C82.904 43.956 82.7 43.428 82.7 42.804V21.996C82.7 21.372 82.916 20.856 83.348 20.448C83.78 20.016 84.332 19.8 85.004 19.8C85.604 19.8 86.12 20.016 86.552 20.448C86.984 20.856 87.2 21.372 87.2 21.996V40.788H96.596ZM121.059 35.388C121.059 37.308 120.627 39.036 119.763 40.572C118.899 42.084 117.711 43.26 116.199 44.1C114.711 44.94 113.067 45.36 111.267 45.36C109.443 45.36 107.787 44.94 106.299 44.1C104.811 43.26 103.635 42.084 102.771 40.572C101.907 39.036 101.475 37.308 101.475 35.388C101.475 33.468 101.907 31.752 102.771 30.24C103.635 28.704 104.811 27.516 106.299 26.676C107.787 25.812 109.443 25.38 111.267 25.38C113.067 25.38 114.711 25.812 116.199 26.676C117.711 27.516 118.899 28.704 119.763 30.24C120.627 31.752 121.059 33.468 121.059 35.388ZM116.739 35.388C116.739 34.212 116.487 33.168 115.983 32.256C115.503 31.32 114.843 30.6 114.003 30.096C113.187 29.592 112.275 29.34 111.267 29.34C110.259 29.34 109.335 29.592 108.495 30.096C107.679 30.6 107.019 31.32 106.515 32.256C106.035 33.168 105.795 34.212 105.795 35.388C105.795 36.564 106.035 37.608 106.515 38.52C107.019 39.432 107.679 40.14 108.495 40.644C109.335 41.148 110.259 41.4 111.267 41.4C112.275 41.4 113.187 41.148 114.003 40.644C114.843 40.14 115.503 39.432 115.983 38.52C116.487 37.608 116.739 36.564 116.739 35.388ZM140.616 25.38C141.24 25.38 141.756 25.584 142.164 25.992C142.572 26.4 142.776 26.928 142.776 27.576V43.596C142.776 46.524 141.864 48.684 140.04 50.076C138.24 51.492 135.948 52.2 133.164 52.2C132.444 52.2 131.448 52.08 130.176 51.84C128.928 51.6 128.04 51.36 127.512 51.12C126.336 50.616 125.748 49.92 125.748 49.032C125.748 48.864 125.784 48.672 125.856 48.456C126 47.928 126.24 47.52 126.576 47.232C126.936 46.968 127.32 46.836 127.728 46.836C127.968 46.836 128.196 46.872 128.412 46.944C128.508 46.968 129.096 47.184 130.176 47.592C131.28 48.024 132.276 48.24 133.164 48.24C134.94 48.24 136.26 47.88 137.124 47.16C138.012 46.464 138.456 45.468 138.456 44.172V42.444C137.928 43.188 137.124 43.86 136.044 44.46C134.988 45.06 133.848 45.36 132.624 45.36C130.944 45.36 129.408 44.94 128.016 44.1C126.648 43.236 125.568 42.048 124.776 40.536C123.984 39.024 123.588 37.308 123.588 35.388C123.588 33.468 123.972 31.752 124.74 30.24C125.532 28.704 126.6 27.516 127.944 26.676C129.312 25.812 130.824 25.38 132.48 25.38C133.704 25.38 134.844 25.632 135.9 26.136C136.956 26.64 137.808 27.252 138.456 27.972V27.576C138.456 26.952 138.66 26.436 139.068 26.028C139.476 25.596 139.992 25.38 140.616 25.38ZM133.164 41.4C134.772 41.4 136.08 40.836 137.088 39.708C138.12 38.556 138.636 37.116 138.636 35.388C138.636 33.66 138.12 32.22 137.088 31.068C136.08 29.916 134.772 29.34 133.164 29.34C131.556 29.34 130.248 29.916 129.24 31.068C128.232 32.22 127.728 33.66 127.728 35.388C127.728 37.116 128.232 38.556 129.24 39.708C130.248 40.836 131.556 41.4 133.164 41.4ZM165.25 35.388C165.25 37.308 164.818 39.036 163.954 40.572C163.09 42.084 161.902 43.26 160.39 44.1C158.902 44.94 157.258 45.36 155.458 45.36C153.634 45.36 151.978 44.94 150.49 44.1C149.002 43.26 147.826 42.084 146.962 40.572C146.098 39.036 145.666 37.308 145.666 35.388C145.666 33.468 146.098 31.752 146.962 30.24C147.826 28.704 149.002 27.516 150.49 26.676C151.978 25.812 153.634 25.38 155.458 25.38C157.258 25.38 158.902 25.812 160.39 26.676C161.902 27.516 163.09 28.704 163.954 30.24C164.818 31.752 165.25 33.468 165.25 35.388ZM160.93 35.388C160.93 34.212 160.678 33.168 160.174 32.256C159.694 31.32 159.034 30.6 158.194 30.096C157.378 29.592 156.466 29.34 155.458 29.34C154.45 29.34 153.526 29.592 152.686 30.096C151.87 30.6 151.21 31.32 150.706 32.256C150.226 33.168 149.986 34.212 149.986 35.388C149.986 36.564 150.226 37.608 150.706 38.52C151.21 39.432 151.87 40.14 152.686 40.644C153.526 41.148 154.45 41.4 155.458 41.4C156.466 41.4 157.378 41.148 158.194 40.644C159.034 40.14 159.694 39.432 160.174 38.52C160.678 37.608 160.93 36.564 160.93 35.388Z" fill="#333333"/>
<rect width="64" height="64" rx="8" fill="url(#paint0_linear)"/>
<path d="M42.128 44.384C42.96 44.384 43.648 44.656 44.192 45.2C44.768 45.712 45.056 46.384 45.056 47.216C45.056 48.016 44.768 48.688 44.192 49.232C43.648 49.744 42.96 50 42.128 50H26.528C25.696 50 24.992 49.728 24.416 49.184C23.872 48.608 23.6 47.904 23.6 47.072V19.328C23.6 18.496 23.888 17.808 24.464 17.264C25.04 16.688 25.776 16.4 26.672 16.4C27.472 16.4 28.16 16.688 28.736 17.264C29.312 17.808 29.6 18.496 29.6 19.328V44.384H42.128Z" fill="white"/>
<defs>
<linearGradient id="paint0_linear" x1="0" y1="0" x2="64" y2="64" gradientUnits="userSpaceOnUse">
<stop stop-color="#714CD3"/>
<stop offset="1" stop-color="#8E69EC"/>
</linearGradient>
</defs>
</svg>
