<svg width="120" height="32" viewBox="0 0 120 32" fill="none" xmlns="http://www.w3.org/2000/svg">
<path d="M51.064 22.192C51.48 22.192 51.824 22.328 52.096 22.6C52.384 22.856 52.528 23.192 52.528 23.608C52.528 24.008 52.384 24.344 52.096 24.616C51.824 24.872 51.48 25 51.064 25H43.264C42.848 25 42.496 24.864 42.208 24.592C41.936 24.304 41.8 23.952 41.8 23.536V9.664C41.8 9.248 41.944 8.904 42.232 8.632C42.52 8.344 42.888 8.2 43.336 8.2C43.736 8.2 44.08 8.344 44.368 8.632C44.656 8.904 44.8 9.248 44.8 9.664V22.192H51.064ZM67.3726 18.592C67.3726 19.872 67.0846 21.024 66.5086 22.048C65.9326 23.056 65.1406 23.84 64.1326 24.4C63.1406 24.96 62.0446 25.24 60.8446 25.24C59.6286 25.24 58.5246 24.96 57.5326 24.4C56.5406 23.84 55.7566 23.056 55.1806 22.048C54.6046 21.024 54.3166 19.872 54.3166 18.592C54.3166 17.312 54.6046 16.168 55.1806 15.16C55.7566 14.136 56.5406 13.344 57.5326 12.784C58.5246 12.208 59.6286 11.92 60.8446 11.92C62.0446 11.92 63.1406 12.208 64.1326 12.784C65.1406 13.344 65.9326 14.136 66.5086 15.16C67.0846 16.168 67.3726 17.312 67.3726 18.592ZM64.4926 18.592C64.4926 17.808 64.3246 17.112 63.9886 16.504C63.6686 15.88 63.2286 15.4 62.6686 15.064C62.1246 14.728 61.5166 14.56 60.8446 14.56C60.1726 14.56 59.5566 14.728 58.9966 15.064C58.4526 15.4 58.0126 15.88 57.6766 16.504C57.3566 17.112 57.1966 17.808 57.1966 18.592C57.1966 19.376 57.3566 20.072 57.6766 20.68C58.0126 21.288 58.4526 21.76 58.9966 22.096C59.5566 22.432 60.1726 22.6 60.8446 22.6C61.5166 22.6 62.1246 22.432 62.6686 22.096C63.2286 21.76 63.6686 21.288 63.9886 20.68C64.3246 20.072 64.4926 19.376 64.4926 18.592ZM80.4108 11.92C80.8268 11.92 81.1708 12.056 81.4427 12.328C81.7148 12.6 81.8508 12.952 81.8508 13.384V24.064C81.8508 26.016 81.2428 27.456 80.0268 28.384C78.8268 29.328 77.2988 29.8 75.4428 29.8C74.9628 29.8 74.2988 29.72 73.4508 29.56C72.6188 29.4 72.0268 29.24 71.6748 29.08C70.8908 28.744 70.4988 28.28 70.4988 27.688C70.4988 27.576 70.5228 27.448 70.5708 27.304C70.6668 26.952 70.8268 26.68 71.0508 26.488C71.2908 26.312 71.5468 26.224 71.8188 26.224C71.9788 26.224 72.1308 26.248 72.2748 26.296C72.3388 26.312 72.7308 26.456 73.4508 26.728C74.1868 27.016 74.8508 27.16 75.4428 27.16C76.6268 27.16 77.5068 26.92 78.0828 26.44C78.6748 25.976 78.9708 25.312 78.9708 24.448V23.296C78.6188 23.792 78.0828 24.24 77.3628 24.64C76.6588 25.04 75.8988 25.24 75.0828 25.24C73.9628 25.24 72.9388 24.96 72.0108 24.4C71.0988 23.824 70.3788 23.032 69.8508 22.024C69.3228 21.016 69.0588 19.872 69.0588 18.592C69.0588 17.312 69.3148 16.168 69.8268 15.16C70.3548 14.136 71.0668 13.344 71.9628 12.784C72.8748 12.208 73.8828 11.92 74.9868 11.92C75.8028 11.92 76.5628 12.088 77.2668 12.424C77.9708 12.76 78.5388 13.168 78.9708 13.648V13.384C78.9708 12.968 79.1068 12.624 79.3788 12.352C79.6508 12.064 79.9948 11.92 80.4108 11.92ZM75.4428 22.6C76.5148 22.6 77.3868 22.224 78.0588 21.472C78.7468 20.704 79.0908 19.744 79.0908 18.592C79.0908 17.44 78.7468 16.48 78.0588 15.712C77.3868 14.944 76.5148 14.56 75.4428 14.56C74.3708 14.56 73.4988 14.944 72.8268 15.712C72.1548 16.48 71.8188 17.44 71.8188 18.592C71.8188 19.744 72.1548 20.704 72.8268 21.472C73.4988 22.224 74.3708 22.6 75.4428 22.6ZM96.8335 18.592C96.8335 19.872 96.5455 21.024 95.9695 22.048C95.3935 23.056 94.6015 23.84 93.5935 24.4C92.6015 24.96 91.5055 25.24 90.3055 25.24C89.0895 25.24 87.9855 24.96 86.9935 24.4C86.0015 23.84 85.2175 23.056 84.6415 22.048C84.0655 21.024 83.7775 19.872 83.7775 18.592C83.7775 17.312 84.0655 16.168 84.6415 15.16C85.2175 14.136 86.0015 13.344 86.9935 12.784C87.9855 12.208 89.0895 11.92 90.3055 11.92C91.5055 11.92 92.6015 12.208 93.5935 12.784C94.6015 13.344 95.3935 14.136 95.9695 15.16C96.5455 16.168 96.8335 17.312 96.8335 18.592ZM93.9535 18.592C93.9535 17.808 93.7855 17.112 93.4495 16.504C93.1295 15.88 92.6895 15.4 92.1295 15.064C91.5855 14.728 90.9775 14.56 90.3055 14.56C89.6335 14.56 89.0175 14.728 88.4575 15.064C87.9135 15.4 87.4735 15.88 87.1375 16.504C86.8175 17.112 86.6575 17.808 86.6575 18.592C86.6575 19.376 86.8175 20.072 87.1375 20.68C87.4735 21.288 87.9135 21.76 88.4575 22.096C89.0175 22.432 89.6335 22.6 90.3055 22.6C90.9775 22.6 91.5855 22.432 92.1295 22.096C92.6895 21.76 93.1295 21.288 93.4495 20.68C93.7855 20.072 93.9535 19.376 93.9535 18.592Z" fill="#333333"/>
<rect width="32" height="32" rx="8" fill="url(#paint0_linear)"/>
<path d="M21.064 22.192C21.48 22.192 21.824 22.328 22.096 22.6C22.384 22.856 22.528 23.192 22.528 23.608C22.528 24.008 22.384 24.344 22.096 24.616C21.824 24.872 21.48 25 21.064 25H13.264C12.848 25 12.496 24.864 12.208 24.592C11.936 24.304 11.8 23.952 11.8 23.536V9.664C11.8 9.248 11.944 8.904 12.232 8.632C12.52 8.344 12.888 8.2 13.336 8.2C13.736 8.2 14.08 8.344 14.368 8.632C14.656 8.904 14.8 9.248 14.8 9.664V22.192H21.064Z" fill="white"/>
<defs>
<linearGradient id="paint0_linear" x1="0" y1="0" x2="32" y2="32" gradientUnits="userSpaceOnUse">
<stop stop-color="#714CD3"/>
<stop offset="1" stop-color="#8E69EC"/>
</linearGradient>
</defs>
</svg>
